<svg width="238" height="233" viewBox="0 0 238 233" fill="none" xmlns="http://www.w3.org/2000/svg">
<path d="M145.304 15.8696C152.636 14.4297 157.8 8.64571 159.474 0C178.622 5.51546 190.396 23.46 188.885 42.3079C187.128 64.225 172.52 77.7056 153.418 80.8943C176.262 87.2126 201.098 69.6817 203.516 43.2486C240.059 78.6662 250.75 144.182 217.537 185.501C217.085 176.895 216.659 168.799 216.233 160.703C209.461 186.224 196.511 207.164 174.077 221.813C179.15 210.534 184.081 199.569 189.013 188.604C188.529 188.314 188.045 188.023 187.561 187.733C169.409 214.765 144.229 229.752 111.679 232.225C124.344 224.429 136.936 216.592 146.235 203.677C136.936 205.946 128.301 208.052 119.665 210.158C119.393 209.71 119.121 209.262 118.849 208.814C138.493 194.722 147.292 175.793 144.892 150.5C139.224 170.388 128.794 184.921 110.383 192.602C92.1133 200.223 74.5532 198.332 56.2789 188.095C59.5714 187.197 61.6186 186.638 63.5295 186.117C61.0719 181.541 58.1631 176.934 56.0403 171.989C52.4973 163.737 54.3647 155.446 60.5468 149.556C64.9821 145.331 70.1134 146.013 74.9592 147.217C78.5969 148.121 78.7498 151.598 77.4004 154.953C74.3493 162.54 80.3666 170.93 88.7034 170.47C90.1962 170.388 92.1618 169.097 92.9456 167.787C95.2452 163.945 97.0593 159.812 99.7541 154.408C99.9706 159.031 100.125 162.338 100.362 167.388C102.999 163.676 105.121 161.191 106.68 158.391C110.022 152.388 113.165 151.788 118.48 156.483C119.186 157.106 119.957 157.656 120.902 158.4C117.207 130.975 93.6637 106.785 66.5772 101.424C57.6899 99.6649 48.9753 99.0796 40.1877 100.746C37.7953 101.199 35.5159 103.137 33.5755 104.839C31.5908 106.58 30.0861 108.868 27.4852 111.975C27.211 108.01 27.0486 105.663 26.8537 102.845C25.0239 104.293 23.5509 105.459 21.4911 107.089C21.3249 105.195 20.9787 103.937 21.1571 102.758C21.6094 99.767 20.0293 98.6144 17.6359 97.224C15.2158 95.8182 13.3124 93.4074 11.4284 91.2247C9.27837 88.7337 7.84566 85.4272 5.32193 83.4908C-3.24984 76.9136 0.0730128 69.5292 4.5811 63.9693C6.71841 61.3333 10.6846 59.6288 14.1423 58.72C23.7862 56.1853 32.9895 53.1956 39.8669 45.3607C51.2814 32.3572 65.8069 26.1783 82.9766 24.4131C102.517 22.4042 121.214 24.3281 139.255 32.1765C139.96 32.4835 140.835 32.4022 140.69 32.3841C142.355 27.1155 143.903 22.2143 145.199 16.817C145.183 16.0499 145.302 15.8994 145.304 15.8696Z" fill="#6366F1"/>
</svg>
